ffmpeg started on 2025-04-30 at 18:31:55
Report written to "D:\Convert\FFMetrics\reports\psnr_report-6.txt"
Log level: 32
Command line:
ffmpeg -hide_banner -nostdin -i "G:\\\xc0\xed\xe8\xec\xe5\\\xce\xed\xe3\xee\xe8\xed\xe3\xe8\\!_35_\xcb\xe5\xf2\xee_2024\\JamClub\\\xcc\xee\xff \xf1\xfd\xec\xef\xe0\xe9 - \xef\xe0\xf0\xe5\xed\xfc\\JamClub_Senpai_wa_Otokonoko_03_1080p_HEVC.mkv" -i "G:\\\xc0\xed\xe8\xec\xe5\\\xce\xed\xe3\xee\xe8\xed\xe3\xe8\\!_35_\xcb\xe5\xf2\xee_2024\\JamClub\\\xcc\xee\xff \xf1\xfd\xec\xef\xe0\xe9 - \xef\xe0\xf0\xe5\xed\xfc\\JamClub_Senpai_wa_Otokonoko_03_1080p.mp4" -lavfi "[0:v]settb=AVTB,setpts=PTS-STARTPTS,format=pix_fmts=yuv420p10,fps=24000/1001,scale=1920:1080:flags=bicubic[main];[1:v]settb=AVTB,setpts=PTS-STARTPTS,format=pix_fmts=yuv420p,fps=24000/1001,scale=1920:1080:flags=bicubic[ref];[main][ref]psnr=eof_action=endall:stats_file='D\\:/Convert/FFMetrics/logs/psnr_logfile-6.txt'" -f null -
Input #0, matroska,webm, from 'G:\Аниме\Онгоинги\!_35_Лето_2024\JamClub\Моя сэмпай - парень\JamClub_Senpai_wa_Otokonoko_03_1080p_HEVC.mkv':
  Metadata:
    COMPATIBLE_BRANDS: isomiso2avc1mp41
    MAJOR_BRAND     : isom
    MINOR_VERSION   : 512
    ENCODER         : Lavf61.7.100
  Duration: 00:23:21.07, start: -0.001000, bitrate: 917 kb/s
  Stream #0:0: Video: hevc (Main 10), yuv420p10le(tv, bt709, progressive), 1920x1080 [SAR 1:1 DAR 16:9], 23.98 fps, 23.98 tbr, 1k tbn (default)
      Metadata:
        HANDLER_NAME    : VideoHandler
        VENDOR_ID       : [0][0][0][0]
        ENCODER         : Lavc61.19.100 libx265
        BPS             : 725365
        DURATION        : 00:23:12.182708333
        NUMBER_OF_FRAMES: 33379
        NUMBER_OF_BYTES : 126230120
        _STATISTICS_WRITING_APP: mkvpropedit v66.0.0 ('Josie') 64-bit
        _STATISTICS_WRITING_DATE_UTC: 2025-04-29 15:42:11
        _STATISTICS_TAGS: BPS DURATION NUMBER_OF_FRAMES NUMBER_OF_BYTES
  Stream #0:1(eng): Audio: aac (LC), 48000 Hz, stereo, fltp (default)
      Metadata:
        HANDLER_NAME    : SoundHandler
        VENDOR_ID       : [0][0][0][0]
        ENCODER         : Lavc61.19.100 aac
        BPS             : 192568
        DURATION        : 00:23:21.027000000
        NUMBER_OF_FRAMES: 65674
        NUMBER_OF_BYTES : 33724207
        _STATISTICS_WRITING_APP: mkvpropedit v66.0.0 ('Josie') 64-bit
        _STATISTICS_WRITING_DATE_UTC: 2025-04-29 15:42:11
        _STATISTICS_TAGS: BPS DURATION NUMBER_OF_FRAMES NUMBER_OF_BYTES
Input #1, mov,mp4,m4a,3gp,3g2,mj2, from 'G:\Аниме\Онгоинги\!_35_Лето_2024\JamClub\Моя сэмпай - парень\JamClub_Senpai_wa_Otokonoko_03_1080p.mp4':
  Metadata:
    major_brand     : isom
    minor_version   : 512
    compatible_brands: isomiso2avc1mp41
    encoder         : Lavf60.16.100
  Duration: 00:23:21.05, start: 0.000000, bitrate: 3751 kb/s
  Stream #1:0[0x1](und): Video: h264 (High) (avc1 / 0x31637661), yuv420p(progressive), 1920x1080 [SAR 1:1 DAR 16:9], 3576 kb/s, 23.98 fps, 23.98 tbr, 90k tbn (default)
      Metadata:
        handler_name    : VideoHandler
        vendor_id       : [0][0][0][0]
  Stream #1:1[0x2](eng): Audio: aac (LC) (mp4a / 0x6134706D), 48000 Hz, stereo, fltp, 191 kb/s (default)
      Metadata:
        handler_name    : SoundHandler
        vendor_id       : [0][0][0][0]
Stream mapping:
  Stream #0:0 (hevc) -> settb:default
  Stream #1:0 (h264) -> settb:default
  psnr:default -> Stream #0:0 (wrapped_avframe)
  Stream #0:1 -> #0:1 (aac (native) -> pcm_s16le (native))
Output #0, null, to 'pipe:':
  Metadata:
    COMPATIBLE_BRANDS: isomiso2avc1mp41
    MAJOR_BRAND     : isom
    MINOR_VERSION   : 512
    encoder         : Lavf61.7.100
  Stream #0:0: Video: wrapped_avframe, yuv420p10le(tv, bt709, progressive), 1920x1080 [SAR 1:1 DAR 16:9], q=2-31, 200 kb/s, 23.98 fps, 23.98 tbn
      Metadata:
        encoder         : Lavc61.19.100 wrapped_avframe
  Stream #0:1(eng): Audio: pcm_s16le, 48000 Hz, stereo, s16, 1536 kb/s (default)
      Metadata:
        HANDLER_NAME    : SoundHandler
        VENDOR_ID       : [0][0][0][0]
        _STATISTICS_TAGS: BPS DURATION NUMBER_OF_FRAMES NUMBER_OF_BYTES
        BPS             : 192568
        DURATION        : 00:23:21.027000000
        NUMBER_OF_FRAMES: 65674
        NUMBER_OF_BYTES : 33724207
        _STATISTICS_WRITING_APP: mkvpropedit v66.0.0 ('Josie') 64-bit
        _STATISTICS_WRITING_DATE_UTC: 2025-04-29 15:42:11
        encoder         : Lavc61.19.100 pcm_s16le
frame=  119 fps=0.0 q=-0.0 size=N/A time=00:00:04.96 bitrate=N/A speed=9.61x    frame=  283 fps=276 q=-0.0 size=N/A time=00:00:11.80 bitrate=N/A speed=11.5x    frame=  488 fps=316 q=-0.0 size=N/A time=00:00:20.35 bitrate=N/A speed=13.2x    frame=  739 fps=360 q=-0.0 size=N/A time=00:00:30.82 bitrate=N/A speed=  15x    frame= 1021 fps=396 q=-0.0 size=N/A time=00:00:42.58 bitrate=N/A speed=16.5x    frame= 1264 fps=409 q=-0.0 size=N/A time=00:00:52.71 bitrate=N/A speed=17.1x    frame= 1543 fps=427 q=-0.0 size=N/A time=00:01:04.35 bitrate=N/A speed=17.8x    frame= 1794 fps=435 q=-0.0 size=N/A time=00:01:14.82 bitrate=N/A speed=18.1x    frame= 2061 fps=444 q=-0.0 size=N/A time=00:01:25.96 bitrate=N/A speed=18.5x    frame= 2314 fps=448 q=-0.0 size=N/A time=00:01:36.51 bitrate=N/A speed=18.7x    frame= 2548 fps=449 q=-0.0 size=N/A time=00:01:46.27 bitrate=N/A speed=18.7x    frame= 2803 fps=453 q=-0.0 size=N/A time=00:01:56.90 bitrate=N/A speed=18.9x    frame= 3078 fps=459 q=-0.0 size=N/A time=00:02:08.37 bitrate=N/A speed=19.1x    frame= 3323 fps=460 q=-0.0 size=N/A time=00:02:18.59 bitrate=N/A speed=19.2x    frame= 3563 fps=460 q=-0.0 size=N/A time=00:02:28.60 bitrate=N/A speed=19.2x    frame= 3817 fps=462 q=-0.0 size=N/A time=00:02:39.20 bitrate=N/A speed=19.3x    frame= 4086 fps=466 q=-0.0 size=N/A time=00:02:50.42 bitrate=N/A speed=19.4x    frame= 4355 fps=468 q=-0.0 size=N/A time=00:03:01.63 bitrate=N/A speed=19.5x    frame= 4642 fps=473 q=-0.0 size=N/A time=00:03:13.61 bitrate=N/A speed=19.7x    frame= 4925 fps=477 q=-0.0 size=N/A time=00:03:25.41 bitrate=N/A speed=19.9x    frame= 5181 fps=478 q=-0.0 size=N/A time=00:03:36.09 bitrate=N/A speed=19.9x    frame= 5432 fps=479 q=-0.0 size=N/A time=00:03:46.55 bitrate=N/A speed=  20x    frame= 5710 fps=481 q=-0.0 size=N/A time=00:03:58.15 bitrate=N/A speed=  20x    frame= 5969 fps=482 q=-0.0 size=N/A time=00:04:08.95 bitrate=N/A speed=20.1x    frame= 6234 fps=483 q=-0.0 size=N/A time=00:04:20.00 bitrate=N/A speed=20.1x    frame= 6456 fps=481 q=-0.0 size=N/A time=00:04:29.26 bitrate=N/A speed=20.1x    frame= 6678 fps=479 q=-0.0 size=N/A time=00:04:38.52 bitrate=N/A speed=  20x    frame= 6870 fps=475 q=-0.0 size=N/A time=00:04:46.53 bitrate=N/A speed=19.8x    frame= 7106 fps=475 q=-0.0 size=N/A time=00:04:56.37 bitrate=N/A speed=19.8x    frame= 7324 fps=473 q=-0.0 size=N/A time=00:05:05.47 bitrate=N/A speed=19.7x    frame= 7583 fps=474 q=-0.0 size=N/A time=00:05:16.27 bitrate=N/A speed=19.8x    frame= 7809 fps=473 q=-0.0 size=N/A time=00:05:25.70 bitrate=N/A speed=19.7x    frame= 8057 fps=473 q=-0.0 size=N/A time=00:05:36.04 bitrate=N/A speed=19.7x    frame= 8299 fps=473 q=-0.0 size=N/A time=00:05:46.13 bitrate=N/A speed=19.7x    frame= 8566 fps=474 q=-0.0 size=N/A time=00:05:57.27 bitrate=N/A speed=19.8x    frame= 8843 fps=476 q=-0.0 size=N/A time=00:06:08.82 bitrate=N/A speed=19.8x    frame= 9115 fps=477 q=-0.0 size=N/A time=00:06:20.17 bitrate=N/A speed=19.9x    frame= 9379 fps=478 q=-0.0 size=N/A time=00:06:31.18 bitrate=N/A speed=19.9x    frame= 9645 fps=479 q=-0.0 size=N/A time=00:06:42.27 bitrate=N/A speed=  20x    frame= 9892 fps=479 q=-0.0 size=N/A time=00:06:52.57 bitrate=N/A speed=  20x    frame=10130 fps=479 q=-0.0 size=N/A time=00:07:02.50 bitrate=N/A speed=  20x    frame=10403 fps=480 q=-0.0 size=N/A time=00:07:13.89 bitrate=N/A speed=  20x    frame=10638 fps=479 q=-0.0 size=N/A time=00:07:23.69 bitrate=N/A speed=  20x    frame=10881 fps=479 q=-0.0 size=N/A time=00:07:33.82 bitrate=N/A speed=  20x    frame=11134 fps=479 q=-0.0 size=N/A time=00:07:44.38 bitrate=N/A speed=  20x    frame=11362 fps=478 q=-0.0 size=N/A time=00:07:53.89 bitrate=N/A speed=  20x    frame=11597 fps=478 q=-0.0 size=N/A time=00:08:03.69 bitrate=N/A speed=19.9x    frame=11829 fps=477 q=-0.0 size=N/A time=00:08:13.36 bitrate=N/A speed=19.9x    frame=12090 fps=478 q=-0.0 size=N/A time=00:08:24.25 bitrate=N/A speed=19.9x    frame=12298 fps=477 q=-0.0 size=N/A time=00:08:32.92 bitrate=N/A speed=19.9x    frame=12552 fps=477 q=-0.0 size=N/A time=00:08:43.52 bitrate=N/A speed=19.9x    frame=12780 fps=476 q=-0.0 size=N/A time=00:08:53.03 bitrate=N/A speed=19.9x    frame=13008 fps=475 q=-0.0 size=N/A time=00:09:02.54 bitrate=N/A speed=19.8x    frame=13257 fps=475 q=-0.0 size=N/A time=00:09:12.92 bitrate=N/A speed=19.8x    frame=13487 fps=475 q=-0.0 size=N/A time=00:09:22.52 bitrate=N/A speed=19.8x    frame=13719 fps=475 q=-0.0 size=N/A time=00:09:32.19 bitrate=N/A speed=19.8x    frame=13981 fps=475 q=-0.0 size=N/A time=00:09:43.12 bitrate=N/A speed=19.8x    frame=14254 fps=476 q=-0.0 size=N/A time=00:09:54.51 bitrate=N/A speed=19.9x    frame=14515 fps=477 q=-0.0 size=N/A time=00:10:05.39 bitrate=N/A speed=19.9x    frame=14786 fps=477 q=-0.0 size=N/A time=00:10:16.69 bitrate=N/A speed=19.9x    frame=15046 fps=478 q=-0.0 size=N/A time=00:10:27.54 bitrate=N/A speed=19.9x    frame=15283 fps=478 q=-0.0 size=N/A time=00:10:37.42 bitrate=N/A speed=19.9x    frame=15539 fps=478 q=-0.0 size=N/A time=00:10:48.10 bitrate=N/A speed=19.9x    frame=15808 fps=479 q=-0.0 size=N/A time=00:10:59.32 bitrate=N/A speed=  20x    frame=16039 fps=478 q=-0.0 size=N/A time=00:11:08.95 bitrate=N/A speed=19.9x    frame=16295 fps=478 q=-0.0 size=N/A time=00:11:19.63 bitrate=N/A speed=  20x    frame=16553 fps=479 q=-0.0 size=N/A time=00:11:30.39 bitrate=N/A speed=  20x    frame=16788 fps=478 q=-0.0 size=N/A time=00:11:40.19 bitrate=N/A speed=  20x    frame=17053 fps=479 q=-0.0 size=N/A time=00:11:51.25 bitrate=N/A speed=  20x    frame=17316 fps=479 q=-0.0 size=N/A time=00:12:02.22 bitrate=N/A speed=  20x    frame=17573 fps=480 q=-0.0 size=N/A time=00:12:12.94 bitrate=N/A speed=  20x    frame=17840 fps=480 q=-0.0 size=N/A time=00:12:24.07 bitrate=N/A speed=  20x    frame=18108 fps=481 q=-0.0 size=N/A time=00:12:35.25 bitrate=N/A speed=  20x    frame=18361 fps=481 q=-0.0 size=N/A time=00:12:45.80 bitrate=N/A speed=  20x    frame=18626 fps=481 q=-0.0 size=N/A time=00:12:56.85 bitrate=N/A speed=20.1x    frame=18889 fps=481 q=-0.0 size=N/A time=00:13:07.82 bitrate=N/A speed=20.1x    frame=19079 fps=480 q=-0.0 size=N/A time=00:13:15.75 bitrate=N/A speed=  20x    frame=19346 fps=480 q=-0.0 size=N/A time=00:13:26.88 bitrate=N/A speed=  20x    frame=19608 fps=481 q=-0.0 size=N/A time=00:13:37.81 bitrate=N/A speed=20.1x    frame=19852 fps=481 q=-0.0 size=N/A time=00:13:47.99 bitrate=N/A speed=20.1x    frame=20109 fps=481 q=-0.0 size=N/A time=00:13:58.71 bitrate=N/A speed=20.1x    frame=20368 fps=481 q=-0.0 size=N/A time=00:14:09.55 bitrate=N/A speed=20.1x    frame=20616 fps=481 q=-0.0 size=N/A time=00:14:19.85 bitrate=N/A speed=20.1x    frame=20843 fps=481 q=-0.0 size=N/A time=00:14:29.32 bitrate=N/A speed=20.1x    frame=21078 fps=480 q=-0.0 size=N/A time=00:14:39.12 bitrate=N/A speed=  20x    frame=21322 fps=480 q=-0.0 size=N/A time=00:14:49.30 bitrate=N/A speed=  20x    frame=21552 fps=480 q=-0.0 size=N/A time=00:14:58.89 bitrate=N/A speed=  20x    frame=21754 fps=479 q=-0.0 size=N/A time=00:15:07.32 bitrate=N/A speed=  20x    frame=22017 fps=479 q=-0.0 size=N/A time=00:15:18.29 bitrate=N/A speed=  20x    frame=22286 fps=480 q=-0.0 size=N/A time=00:15:29.51 bitrate=N/A speed=  20x    frame=22518 fps=479 q=-0.0 size=N/A time=00:15:39.18 bitrate=N/A speed=  20x    frame=22770 fps=479 q=-0.0 size=N/A time=00:15:49.69 bitrate=N/A speed=  20x    frame=23032 fps=480 q=-0.0 size=N/A time=00:16:00.62 bitrate=N/A speed=  20x    frame=23271 fps=480 q=-0.0 size=N/A time=00:16:10.59 bitrate=N/A speed=  20x    frame=23517 fps=480 q=-0.0 size=N/A time=00:16:20.85 bitrate=N/A speed=  20x    frame=23764 fps=480 q=-0.0 size=N/A time=00:16:31.15 bitrate=N/A speed=  20x    frame=24011 fps=480 q=-0.0 size=N/A time=00:16:41.45 bitrate=N/A speed=  20x    frame=24246 fps=479 q=-0.0 size=N/A time=00:16:51.26 bitrate=N/A speed=  20x    frame=24454 fps=479 q=-0.0 size=N/A time=00:16:59.93 bitrate=N/A speed=  20x    frame=24695 fps=479 q=-0.0 size=N/A time=00:17:09.98 bitrate=N/A speed=  20x    frame=24942 fps=478 q=-0.0 size=N/A time=00:17:20.28 bitrate=N/A speed=  20x    frame=25204 fps=479 q=-0.0 size=N/A time=00:17:31.21 bitrate=N/A speed=  20x    frame=25461 fps=479 q=-0.0 size=N/A time=00:17:41.93 bitrate=N/A speed=  20x    frame=25708 fps=479 q=-0.0 size=N/A time=00:17:52.23 bitrate=N/A speed=  20x    frame=25969 fps=479 q=-0.0 size=N/A time=00:18:03.12 bitrate=N/A speed=  20x    frame=26181 fps=479 q=-0.0 size=N/A time=00:18:11.96 bitrate=N/A speed=  20x    frame=26436 fps=479 q=-0.0 size=N/A time=00:18:22.60 bitrate=N/A speed=  20x    frame=26631 fps=478 q=-0.0 size=N/A time=00:18:30.73 bitrate=N/A speed=19.9x    frame=26845 fps=477 q=-0.0 size=N/A time=00:18:39.66 bitrate=N/A speed=19.9x    frame=27079 fps=477 q=-0.0 size=N/A time=00:18:49.41 bitrate=N/A speed=19.9x    frame=27314 fps=477 q=-0.0 size=N/A time=00:18:59.22 bitrate=N/A speed=19.9x    frame=27566 fps=477 q=-0.0 size=N/A time=00:19:09.73 bitrate=N/A speed=19.9x    frame=27821 fps=477 q=-0.0 size=N/A time=00:19:20.36 bitrate=N/A speed=19.9x    frame=28082 fps=477 q=-0.0 size=N/A time=00:19:31.25 bitrate=N/A speed=19.9x    frame=28332 fps=477 q=-0.0 size=N/A time=00:19:41.68 bitrate=N/A speed=19.9x    frame=28569 fps=477 q=-0.0 size=N/A time=00:19:51.56 bitrate=N/A speed=19.9x    frame=28802 fps=477 q=-0.0 size=N/A time=00:20:01.28 bitrate=N/A speed=19.9x    frame=29081 fps=478 q=-0.0 size=N/A time=00:20:12.92 bitrate=N/A speed=19.9x    frame=29336 fps=478 q=-0.0 size=N/A time=00:20:23.55 bitrate=N/A speed=19.9x    frame=29597 fps=478 q=-0.0 size=N/A time=00:20:34.44 bitrate=N/A speed=19.9x    frame=29855 fps=478 q=-0.0 size=N/A time=00:20:45.20 bitrate=N/A speed=19.9x    frame=30123 fps=479 q=-0.0 size=N/A time=00:20:56.38 bitrate=N/A speed=  20x    frame=30396 fps=479 q=-0.0 size=N/A time=00:21:07.76 bitrate=N/A speed=  20x    frame=30654 fps=479 q=-0.0 size=N/A time=00:21:18.52 bitrate=N/A speed=  20x    frame=30906 fps=479 q=-0.0 size=N/A time=00:21:29.03 bitrate=N/A speed=  20x    frame=31187 fps=480 q=-0.0 size=N/A time=00:21:40.75 bitrate=N/A speed=  20x    frame=31430 fps=480 q=-0.0 size=N/A time=00:21:50.89 bitrate=N/A speed=  20x    frame=31686 fps=480 q=-0.0 size=N/A time=00:22:01.57 bitrate=N/A speed=  20x    frame=31913 fps=479 q=-0.0 size=N/A time=00:22:11.03 bitrate=N/A speed=  20x    frame=32149 fps=479 q=-0.0 size=N/A time=00:22:20.88 bitrate=N/A speed=  20x    frame=32385 fps=479 q=-0.0 size=N/A time=00:22:30.72 bitrate=N/A speed=  20x    frame=32622 fps=479 q=-0.0 size=N/A time=00:22:40.60 bitrate=N/A speed=  20x    frame=32873 fps=479 q=-0.0 size=N/A time=00:22:51.07 bitrate=N/A speed=  20x    frame=33080 fps=478 q=-0.0 size=N/A time=00:22:59.71 bitrate=N/A speed=  20x    frame=33313 fps=478 q=-0.0 size=N/A time=00:23:09.42 bitrate=N/A speed=19.9x    [Parsed_psnr_10 @ 000002f35f217580] PSNR y:49.121216 u:51.312380 v:51.321634 average:49.737447 min:37.687346 max:inf
[out#0/null @ 000002f349774e80] video:14343KiB audio:262696KiB subtitle:0KiB other streams:0KiB global headers:0KiB muxing overhead: unknown
frame=33379 fps=478 q=-0.0 Lsize=N/A time=00:23:12.18 bitrate=N/A speed=19.9x    
